# xmcd
#
# Track frame offsets:
# 150
# 16755
# 40342
# 55774
# 74150
# 87640
# 100351
# 115488
# 132588
# 168649
#
# Disc length: 2485 seconds
#
#
# Revision: 0
# Processed by: cddbd v1.5.2PL0 Copyright (c) Steve Scherf et al.
# Submitted via: FreeRIP 2.951 
#
DISCID=9509b30a
DTITLE=Mississippi Muthers - Mississippi Muthers-Standing At The Station
DYEAR=2001
DGENRE=Blues
TTITLE0=Empty Arms
TTITLE1=Sweet Sixteen
TTITLE2=Chitlins Con Carne
TTITLE3=Standing At The Station
TTITLE4=Take Me Home
TTITLE5=Mongolious's Blue Hanglider
TTITLE6=Hurricane Took My Home
TTITLE7=While My Guitar Gently Weeps
TTITLE8=Mississippi Muthers Blues
TTITLE9=Hide Away
EXTD=
EXTT0=
EXTT1=
EXTT2=
EXTT3=
EXTT4=
EXTT5=
EXTT6=
EXTT7=
EXTT8=
EXTT9=
PLAYORDER=
